<?xml version="1.0" encoding="UTF-8" standalone="no"?>
<svg
  style="background-color: #000000;"
   xmlns:dc="http://purl.org/dc/elements/1.1/"
   xmlns:cc="http://creativecommons.org/ns#"
   xmlns:rdf="http://www.w3.org/1999/02/22-rdf-syntax-ns#"
   xmlns:svg="http://www.w3.org/2000/svg"
   xmlns="http://www.w3.org/2000/svg"
   viewBox="0 0 816 1056"
   height="1056"
   width="816"
   xml:space="preserve"
   id="svg2"
   version="1.1"><metadata
     id="metadata8"><rdf:RDF><cc:Work
         rdf:about=""><dc:format>image/svg+xml</dc:format><dc:type
           rdf:resource="http://purl.org/dc/dcmitype/StillImage" /></cc:Work></rdf:RDF></metadata><defs
     id="defs6">
    <clipPath
       id="clipPath18"
       clipPathUnits="userSpaceOnUse"><path
         style="clip-rule:evenodd"
         id="path16"
         d="M 9.12e-6,0 H 612.00001 V 792 H 9.12e-6 Z" /></clipPath><clipPath
       id="clipPath26"
       clipPathUnits="userSpaceOnUse"><path
         style="clip-rule:evenodd"
         id="path24"
         d="M 9.12e-6,0 H 612.00001 V 792 H 9.12e-6 Z" /></clipPath><clipPath
       id="clipPath38"
       clipPathUnits="userSpaceOnUse"><path
         style="clip-rule:evenodd"
         id="path36"
         d="M 9.12e-6,0 H 612.00001 V 792 H 9.12e-6 Z" /></clipPath><clipPath
       id="clipPath46"
       clipPathUnits="userSpaceOnUse"><path
         style="clip-rule:evenodd"
         id="path44"
         d="M 9.12e-6,0 H 612.00001 V 792 H 9.12e-6 Z" /></clipPath><clipPath
       id="clipPath58"
       clipPathUnits="userSpaceOnUse"><path
         style="clip-rule:evenodd"
         id="path56"
         d="M 9.12e-6,0 H 612.00001 V 792 H 9.12e-6 Z" /></clipPath><clipPath
       id="clipPath70"
       clipPathUnits="userSpaceOnUse"><path
         style="clip-rule:evenodd"
         id="path68"
         d="M 9.12e-6,0 H 612.00001 V 792 H 9.12e-6 Z" /></clipPath><clipPath
       id="clipPath82"
       clipPathUnits="userSpaceOnUse"><path
         style="clip-rule:evenodd"
         id="path80"
         d="M 9.12e-6,0 H 612.00001 V 792 H 9.12e-6 Z" /></clipPath><clipPath
       id="clipPath94"
       clipPathUnits="userSpaceOnUse"><path
         style="clip-rule:evenodd"
         id="path92"
         d="M 9.12e-6,0 H 612.00001 V 792 H 9.12e-6 Z" /></clipPath><clipPath
       id="clipPath106"
       clipPathUnits="userSpaceOnUse"><path
         style="clip-rule:evenodd"
         id="path104"
         d="M 9.12e-6,0 H 612.00001 V 792 H 9.12e-6 Z" /></clipPath><clipPath
       id="clipPath118"
       clipPathUnits="userSpaceOnUse"><path
         style="clip-rule:evenodd"
         id="path116"
         d="M 9.12e-6,0 H 612.00001 V 792 H 9.12e-6 Z" /></clipPath><clipPath
       id="clipPath130"
       clipPathUnits="userSpaceOnUse"><path
         style="clip-rule:evenodd"
         id="path128"
         d="M 9.12e-6,0 H 612.00001 V 792 H 9.12e-6 Z" /></clipPath><clipPath
       id="clipPath138"
       clipPathUnits="userSpaceOnUse"><path
         style="clip-rule:evenodd"
         id="path136"
         d="M 9.12e-6,0 H 612.00001 V 792 H 9.12e-6 Z" /></clipPath><clipPath
       id="clipPath146"
       clipPathUnits="userSpaceOnUse"><path
         style="clip-rule:evenodd"
         id="path144"
         d="M 9.12e-6,0 H 612.00001 V 792 H 9.12e-6 Z" /></clipPath><clipPath
       id="clipPath158"
       clipPathUnits="userSpaceOnUse"><path
         style="clip-rule:evenodd"
         id="path156"
         d="M 9.12e-6,0 H 612.00001 V 792 H 9.12e-6 Z" /></clipPath><clipPath
       id="clipPath170"
       clipPathUnits="userSpaceOnUse"><path
         style="clip-rule:evenodd"
         id="path168"
         d="M 9.12e-6,0 H 612.00001 V 792 H 9.12e-6 Z" /></clipPath><clipPath
       id="clipPath182"
       clipPathUnits="userSpaceOnUse"><path
         style="clip-rule:evenodd"
         id="path180"
         d="M 9.12e-6,0 H 612.00001 V 792 H 9.12e-6 Z" /></clipPath><clipPath
       id="clipPath194"
       clipPathUnits="userSpaceOnUse"><path
         style="clip-rule:evenodd"
         id="path192"
         d="M 9.12e-6,0 H 612.00001 V 792 H 9.12e-6 Z" /></clipPath><clipPath
       id="clipPath202"
       clipPathUnits="userSpaceOnUse"><path
         style="clip-rule:evenodd"
         id="path200"
         d="M 9.12e-6,0 H 612.00001 V 792 H 9.12e-6 Z" /></clipPath><clipPath
       id="clipPath214"
       clipPathUnits="userSpaceOnUse"><path
         style="clip-rule:evenodd"
         id="path212"
         d="M 9.12e-6,0 H 612.00001 V 792 H 9.12e-6 Z" /></clipPath><clipPath
       id="clipPath226"
       clipPathUnits="userSpaceOnUse"><path
         style="clip-rule:evenodd"
         id="path224"
         d="M 9.12e-6,0 H 612.00001 V 792 H 9.12e-6 Z" /></clipPath><clipPath
       id="clipPath238"
       clipPathUnits="userSpaceOnUse"><path
         style="clip-rule:evenodd"
         id="path236"
         d="M 9.12e-6,0 H 612.00001 V 792 H 9.12e-6 Z" /></clipPath><clipPath
       id="clipPath250"
       clipPathUnits="userSpaceOnUse"><path
         style="clip-rule:evenodd"
         id="path248"
         d="M 9.12e-6,0 H 612.00001 V 792 H 9.12e-6 Z" /></clipPath><clipPath
       id="clipPath258"
       clipPathUnits="userSpaceOnUse"><path
         style="clip-rule:evenodd"
         id="path256"
         d="M 9.12e-6,0 H 612.00001 V 792 H 9.12e-6 Z" /></clipPath><clipPath
       id="clipPath266"
       clipPathUnits="userSpaceOnUse"><path
         style="clip-rule:evenodd"
         id="path264"
         d="M 9.12e-6,0 H 612.00001 V 792 H 9.12e-6 Z" /></clipPath><clipPath
       id="clipPath278"
       clipPathUnits="userSpaceOnUse"><path
         style="clip-rule:evenodd"
         id="path276"
         d="M 9.12e-6,0 H 612.00001 V 792 H 9.12e-6 Z" /></clipPath><clipPath
       id="clipPath290"
       clipPathUnits="userSpaceOnUse"><path
         style="clip-rule:evenodd"
         id="path288"
         d="M 9.12e-6,0 H 612.00001 V 792 H 9.12e-6 Z" /></clipPath><clipPath
       id="clipPath302"
       clipPathUnits="userSpaceOnUse"><path
         style="clip-rule:evenodd"
         id="path300"
         d="M 9.12e-6,0 H 612.00001 V 792 H 9.12e-6 Z" /></clipPath><clipPath
       id="clipPath314"
       clipPathUnits="userSpaceOnUse"><path
         style="clip-rule:evenodd"
         id="path312"
         d="M 9.12e-6,0 H 612.00001 V 792 H 9.12e-6 Z" /></clipPath><clipPath
       id="clipPath326"
       clipPathUnits="userSpaceOnUse"><path
         style="clip-rule:evenodd"
         id="path324"
         d="M 9.12e-6,0 H 612.00001 V 792 H 9.12e-6 Z" /></clipPath><clipPath
       id="clipPath338"
       clipPathUnits="userSpaceOnUse"><path
         style="clip-rule:evenodd"
         id="path336"
         d="M 9.12e-6,0 H 612.00001 V 792 H 9.12e-6 Z" /></clipPath><clipPath
       id="clipPath350"
       clipPathUnits="userSpaceOnUse"><path
         style="clip-rule:evenodd"
         id="path348"
         d="M 9.12e-6,0 H 612.00001 V 792 H 9.12e-6 Z" /></clipPath><clipPath
       id="clipPath362"
       clipPathUnits="userSpaceOnUse"><path
         style="clip-rule:evenodd"
         id="path360"
         d="M 9.12e-6,0 H 612.00001 V 792 H 9.12e-6 Z" /></clipPath><clipPath
       id="clipPath370"
       clipPathUnits="userSpaceOnUse"><path
         style="clip-rule:evenodd"
         id="path368"
         d="M 9.12e-6,0 H 612.00001 V 792 H 9.12e-6 Z" /></clipPath><clipPath
       id="clipPath378"
       clipPathUnits="userSpaceOnUse"><path
         style="clip-rule:evenodd"
         id="path376"
         d="M 9.12e-6,0 H 612.00001 V 792 H 9.12e-6 Z" /></clipPath><clipPath
       id="clipPath390"
       clipPathUnits="userSpaceOnUse"><path
         style="clip-rule:evenodd"
         id="path388"
         d="M 9.12e-6,0 H 612.00001 V 792 H 9.12e-6 Z" /></clipPath><clipPath
       id="clipPath398"
       clipPathUnits="userSpaceOnUse"><path
         style="clip-rule:evenodd"
         id="path396"
         d="M 9.12e-6,0 H 612.00001 V 792 H 9.12e-6 Z" /></clipPath><clipPath
       id="clipPath406"
       clipPathUnits="userSpaceOnUse"><path
         style="clip-rule:evenodd"
         id="path404"
         d="M 9.12e-6,0 H 612.00001 V 792 H 9.12e-6 Z" /></clipPath><clipPath
       id="clipPath418"
       clipPathUnits="userSpaceOnUse"><path
         style="clip-rule:evenodd"
         id="path416"
         d="M 9.12e-6,0 H 612.00001 V 792 H 9.12e-6 Z" /></clipPath><clipPath
       id="clipPath430"
       clipPathUnits="userSpaceOnUse"><path
         style="clip-rule:evenodd"
         id="path428"
         d="M 9.12e-6,0 H 612.00001 V 792 H 9.12e-6 Z" /></clipPath><clipPath
       id="clipPath438"
       clipPathUnits="userSpaceOnUse"><path
         style="clip-rule:evenodd"
         id="path436"
         d="M 9.12e-6,0 H 612.00001 V 792 H 9.12e-6 Z" /></clipPath><clipPath
       id="clipPath450"
       clipPathUnits="userSpaceOnUse"><path
         style="clip-rule:evenodd"
         id="path448"
         d="M 9.12e-6,0 H 612.00001 V 792 H 9.12e-6 Z" /></clipPath><clipPath
       id="clipPath462"
       clipPathUnits="userSpaceOnUse"><path
         style="clip-rule:evenodd"
         id="path460"
         d="M 9.12e-6,0 H 612.00001 V 792 H 9.12e-6 Z" /></clipPath><clipPath
       id="clipPath470"
       clipPathUnits="userSpaceOnUse"><path
         style="clip-rule:evenodd"
         id="path468"
         d="M 9.12e-6,0 H 612.00001 V 792 H 9.12e-6 Z" /></clipPath><clipPath
       id="clipPath482"
       clipPathUnits="userSpaceOnUse"><path
         style="clip-rule:evenodd"
         id="path480"
         d="M 9.12e-6,0 H 612.00001 V 792 H 9.12e-6 Z" /></clipPath><clipPath
       id="clipPath494"
       clipPathUnits="userSpaceOnUse"><path
         style="clip-rule:evenodd"
         id="path492"
         d="M 9.12e-6,0 H 612.00001 V 792 H 9.12e-6 Z" /></clipPath><clipPath
       id="clipPath502"
       clipPathUnits="userSpaceOnUse"><path
         style="clip-rule:evenodd"
         id="path500"
         d="M 9.12e-6,0 H 612.00001 V 792 H 9.12e-6 Z" /></clipPath><clipPath
       id="clipPath514"
       clipPathUnits="userSpaceOnUse"><path
         style="clip-rule:evenodd"
         id="path512"
         d="M 9.12e-6,0 H 612.00001 V 792 H 9.12e-6 Z" /></clipPath><clipPath
       id="clipPath526"
       clipPathUnits="userSpaceOnUse"><path
         style="clip-rule:evenodd"
         id="path524"
         d="M 9.12e-6,0 H 612.00001 V 792 H 9.12e-6 Z" /></clipPath><clipPath
       id="clipPath534"
       clipPathUnits="userSpaceOnUse"><path
         style="clip-rule:evenodd"
         id="path532"
         d="M 9.12e-6,0 H 612.00001 V 792 H 9.12e-6 Z" /></clipPath><clipPath
       id="clipPath542"
       clipPathUnits="userSpaceOnUse"><path
         style="clip-rule:evenodd"
         id="path540"
         d="M 9.12e-6,0 H 612.00001 V 792 H 9.12e-6 Z" /></clipPath><clipPath
       id="clipPath550"
       clipPathUnits="userSpaceOnUse"><path
         style="clip-rule:evenodd"
         id="path548"
         d="M 9.12e-6,0 H 612.00001 V 792 H 9.12e-6 Z" /></clipPath><clipPath
       id="clipPath562"
       clipPathUnits="userSpaceOnUse"><path
         style="clip-rule:evenodd"
         id="path560"
         d="M 9.12e-6,0 H 612.00001 V 792 H 9.12e-6 Z" /></clipPath><clipPath
       id="clipPath574"
       clipPathUnits="userSpaceOnUse"><path
         style="clip-rule:evenodd"
         id="path572"
         d="M 9.12e-6,0 H 612.00001 V 792 H 9.12e-6 Z" /></clipPath><clipPath
       id="clipPath582"
       clipPathUnits="userSpaceOnUse"><path
         style="clip-rule:evenodd"
         id="path580"
         d="M 9.12e-6,0 H 612.00001 V 792 H 9.12e-6 Z" /></clipPath><clipPath
       id="clipPath594"
       clipPathUnits="userSpaceOnUse"><path
         style="clip-rule:evenodd"
         id="path592"
         d="M 9.12e-6,0 H 612.00001 V 792 H 9.12e-6 Z" /></clipPath><clipPath
       id="clipPath606"
       clipPathUnits="userSpaceOnUse"><path
         style="clip-rule:evenodd"
         id="path604"
         d="M 9.12e-6,0 H 612.00001 V 792 H 9.12e-6 Z" /></clipPath><clipPath
       id="clipPath614"
       clipPathUnits="userSpaceOnUse"><path
         style="clip-rule:evenodd"
         id="path612"
         d="M 9.12e-6,0 H 612.00001 V 792 H 9.12e-6 Z" /></clipPath><clipPath
       id="clipPath626"
       clipPathUnits="userSpaceOnUse"><path
         style="clip-rule:evenodd"
         id="path624"
         d="M 9.12e-6,0 H 612.00001 V 792 H 9.12e-6 Z" /></clipPath><clipPath
       id="clipPath634"
       clipPathUnits="userSpaceOnUse"><path
         style="clip-rule:evenodd"
         id="path632"
         d="M 9.12e-6,0 H 612.00001 V 792 H 9.12e-6 Z" /></clipPath><clipPath
       id="clipPath642"
       clipPathUnits="userSpaceOnUse"><path
         style="clip-rule:evenodd"
         id="path640"
         d="M 9.12e-6,0 H 612.00001 V 792 H 9.12e-6 Z" /></clipPath><clipPath
       id="clipPath654"
       clipPathUnits="userSpaceOnUse"><path
         style="clip-rule:evenodd"
         id="path652"
         d="M 9.12e-6,0 H 612.00001 V 792 H 9.12e-6 Z" /></clipPath><clipPath
       id="clipPath666"
       clipPathUnits="userSpaceOnUse"><path
         style="clip-rule:evenodd"
         id="path664"
         d="M 9.12e-6,0 H 612.00001 V 792 H 9.12e-6 Z" /></clipPath><clipPath
       id="clipPath678"
       clipPathUnits="userSpaceOnUse"><path
         style="clip-rule:evenodd"
         id="path676"
         d="M 9.12e-6,0 H 612.00001 V 792 H 9.12e-6 Z" /></clipPath><clipPath
       id="clipPath690"
       clipPathUnits="userSpaceOnUse"><path
         style="clip-rule:evenodd"
         id="path688"
         d="M 9.12e-6,0 H 612.00001 V 792 H 9.12e-6 Z" /></clipPath><clipPath
       id="clipPath702"
       clipPathUnits="userSpaceOnUse"><path
         style="clip-rule:evenodd"
         id="path700"
         d="M 9.12e-6,0 H 612.00001 V 792 H 9.12e-6 Z" /></clipPath><clipPath
       id="clipPath714"
       clipPathUnits="userSpaceOnUse"><path
         style="clip-rule:evenodd"
         id="path712"
         d="M 9.12e-6,0 H 612.00001 V 792 H 9.12e-6 Z" /></clipPath><clipPath
       id="clipPath726"
       clipPathUnits="userSpaceOnUse"><path
         style="clip-rule:evenodd"
         id="path724"
         d="M 9.12e-6,0 H 612.00001 V 792 H 9.12e-6 Z" /></clipPath><clipPath
       id="clipPath738"
       clipPathUnits="userSpaceOnUse"><path
         style="clip-rule:evenodd"
         id="path736"
         d="M 9.12e-6,0 H 612.00001 V 792 H 9.12e-6 Z" /></clipPath><clipPath
       id="clipPath750"
       clipPathUnits="userSpaceOnUse"><path
         style="clip-rule:evenodd"
         id="path748"
         d="M 9.12e-6,0 H 612.00001 V 792 H 9.12e-6 Z" /></clipPath><clipPath
       id="clipPath762"
       clipPathUnits="userSpaceOnUse"><path
         style="clip-rule:evenodd"
         id="path760"
         d="M 9.12e-6,0 H 612.00001 V 792 H 9.12e-6 Z" /></clipPath><clipPath
       id="clipPath774"
       clipPathUnits="userSpaceOnUse"><path
         style="clip-rule:evenodd"
         id="path772"
         d="M 9.12e-6,0 H 612.00001 V 792 H 9.12e-6 Z" /></clipPath><clipPath
       id="clipPath786"
       clipPathUnits="userSpaceOnUse"><path
         style="clip-rule:evenodd"
         id="path784"
         d="M 9.12e-6,0 H 612.00001 V 792 H 9.12e-6 Z" /></clipPath></defs><g
     transform="matrix(1.3333333,0,0,-1.3333333,0,1056)"
     id="g10"><g
       id="g12"><g
         clip-path="url(#clipPath18)"
         id="g14" /></g><g
       id="g20"><g
         clip-path="url(#clipPath26)"
         id="g22"><text
           id="text30"
           style="font-variant:normal;font-weight:normal;font-size:10.56000042px;font-family:'Courier 10 Pitch';-inkscape-font-specification:CourierNewPSMT;writing-mode:lr-tb;fill:#FFFFFF;fill-opacity:1;fill-rule:nonzero;stroke:none"
           transform="matrix(1,0,0,-1,81.384,710.98)"><tspan
             id="tspan28"
             y="0"
             x="0 6.336 12.59808 18.93408 25.196159 37.794239 44.130241 50.392319 62.990398 69.326401 75.588478 81.924477 100.78464 107.12064 113.38272 119.71872 132.33792 138.67392 144.936 157.53407 163.87009 170.13216 176.46815 182.73024 207.92641 214.26241 220.52448 226.86047 233.12256 245.83681 252.07776 258.41376 271.01184 277.27393 283.60992 289.87201 296.20801 308.80609 315.06815 321.40417 327.66623 334.00223 346.60031 352.8624 359.19839 365.57663 371.8176">____ __ ___ ___ __ ____ ____ __ ____ ____ ____ </tspan></text>
</g></g><g
       id="g32"><g
         clip-path="url(#clipPath38)"
         id="g34" /></g><g
       id="g40"><g
         clip-path="url(#clipPath46)"
         id="g42"><text
           id="text50"
           style="font-variant:normal;font-weight:normal;font-size:10.56000042px;font-family:'Courier 10 Pitch';-inkscape-font-specification:CourierNewPSMT;writing-mode:lr-tb;fill:#FFFFFF;fill-opacity:1;fill-rule:nonzero;stroke:none"
           transform="matrix(1,0,0,-1,75.024,699.1)"><tspan
             id="tspan48"
             y="0"
             x="0 6.336 18.9552 25.291201">( _ </tspan></text>
</g></g><g
       id="g52"><g
         clip-path="url(#clipPath58)"
         id="g54"><text
           id="text62"
           style="font-variant:normal;font-weight:normal;font-size:10.56000042px;font-family:'Courier 10 Pitch';-inkscape-font-specification:CourierNewPSMT;writing-mode:lr-tb;fill:#FFFFFF;fill-opacity:1;fill-rule:nonzero;stroke:none"
           transform="matrix(1,0,0,-1,106.58,699.1)"><tspan
             id="tspan60"
             y="0"
             x="0">\</tspan></text>
</g></g><g
       id="g64"><g
         clip-path="url(#clipPath70)"
         id="g66"><text
           id="text74"
           style="font-variant:normal;font-weight:normal;font-size:10.56000042px;font-family:'Courier 10 Pitch';-inkscape-font-specification:CourierNewPSMT;writing-mode:lr-tb;fill:#FFFFFF;fill-opacity:1;fill-rule:nonzero;stroke:none"
           transform="matrix(1,0,0,-1,112.94,699.1)"><tspan
             id="tspan72"
             y="0"
             x="0 6.2409601 18.839041 25.175039 31.43712 37.773121 44.035198 50.371201 56.633282 62.96928 69.231361 75.56736 81.829437 88.165443 94.543678 100.78464 113.38272 119.71872 125.9808 138.57887 144.91489 151.17696 157.51295 170.11104 176.37312 188.97121 195.30721">( )/ __) / __)( )( __) ( _ </tspan></text>
</g></g><g
       id="g76"><g
         clip-path="url(#clipPath82)"
         id="g78"><text
           id="text86"
           style="font-variant:normal;font-weight:normal;font-size:10.56000042px;font-family:'Courier 10 Pitch';-inkscape-font-specification:CourierNewPSMT;writing-mode:lr-tb;fill:#FFFFFF;fill-opacity:1;fill-rule:nonzero;stroke:none"
           transform="matrix(1,0,0,-1,314.57,699.1)"><tspan
             id="tspan84"
             y="0"
             x="0">\</tspan></text>
</g></g><g
       id="g88"><g
         clip-path="url(#clipPath94)"
         id="g90"><text
           id="text98"
           style="font-variant:normal;font-weight:normal;font-size:10.56000042px;font-family:'Courier 10 Pitch';-inkscape-font-specification:CourierNewPSMT;writing-mode:lr-tb;fill:#FFFFFF;fill-opacity:1;fill-rule:nonzero;stroke:none"
           transform="matrix(1,0,0,-1,320.95,699.1)"><tspan
             id="tspan96"
             y="0"
             x="0 6.336 18.93408 25.196159 31.53216">( )( </tspan></text>
</g></g><g
       id="g100"><g
         clip-path="url(#clipPath106)"
         id="g102"><text
           id="text110"
           style="font-variant:normal;font-weight:normal;font-size:10.56000042px;font-family:'Courier 10 Pitch';-inkscape-font-specification:CourierNewPSMT;writing-mode:lr-tb;fill:#FFFFFF;fill-opacity:1;fill-rule:nonzero;stroke:none"
           transform="matrix(1,0,0,-1,377.71,699.1)"><tspan
             id="tspan108"
             y="0"
             x="0">\</tspan></text>
</g></g><g
       id="g112"><g
         clip-path="url(#clipPath118)"
         id="g114"><text
           id="text122"
           style="font-variant:normal;font-weight:normal;font-size:10.56000042px;font-family:'Courier 10 Pitch';-inkscape-font-specification:CourierNewPSMT;writing-mode:lr-tb;fill:#FFFFFF;fill-opacity:1;fill-rule:nonzero;stroke:none"
           transform="matrix(1,0,0,-1,383.95,699.1)"><tspan
             id="tspan120"
             y="0"
             x="0 6.336 18.93408 25.196159 31.53216 37.794239 44.130241 50.392319 56.728321 63.10656 69.347519 75.683517">( __)/ ___) </tspan></text>
</g></g><g
       id="g124"><g
         clip-path="url(#clipPath130)"
         id="g126" /></g><g
       id="g132"><g
         clip-path="url(#clipPath138)"
         id="g134" /></g><g
       id="g140"><g
         clip-path="url(#clipPath146)"
         id="g142"><text
           id="text150"
           style="font-variant:normal;font-weight:normal;font-size:10.56000042px;font-family:'Courier 10 Pitch';-inkscape-font-specification:CourierNewPSMT;writing-mode:lr-tb;fill:#FFFFFF;fill-opacity:1;fill-rule:nonzero;stroke:none"
           transform="matrix(1,0,0,-1,81.384,687.22)"><tspan
             id="tspan148"
             y="0"
             x="0 6.336 12.59808 18.93408 25.196159 31.53216 37.794239 44.130241 50.392319 56.728321 62.990398 69.326401 75.588478">) _ ( )(( (_ </tspan></text>
</g></g><g
       id="g152"><g
         clip-path="url(#clipPath158)"
         id="g154"><text
           id="text162"
           style="font-variant:normal;font-weight:normal;font-size:10.56000042px;font-family:'Courier 10 Pitch';-inkscape-font-specification:CourierNewPSMT;writing-mode:lr-tb;fill:#FFFFFF;fill-opacity:1;fill-rule:nonzero;stroke:none"
           transform="matrix(1,0,0,-1,163.34,687.22)"><tspan
             id="tspan160"
             y="0"
             x="0">\</tspan></text>
</g></g><g
       id="g164"><g
         clip-path="url(#clipPath170)"
         id="g166"><text
           id="text174"
           style="font-variant:normal;font-weight:normal;font-size:10.56000042px;font-family:'Courier 10 Pitch';-inkscape-font-specification:CourierNewPSMT;writing-mode:lr-tb;fill:#FFFFFF;fill-opacity:1;fill-rule:nonzero;stroke:none"
           transform="matrix(1,0,0,-1,169.58,687.22)"><tspan
             id="tspan172"
             y="0"
             x="0 6.336 12.59808 18.93408 25.196159">( (_ </tspan></text>
</g></g><g
       id="g176"><g
         clip-path="url(#clipPath182)"
         id="g178"><text
           id="text186"
           style="font-variant:normal;font-weight:normal;font-size:10.56000042px;font-family:'Courier 10 Pitch';-inkscape-font-specification:CourierNewPSMT;writing-mode:lr-tb;fill:#FFFFFF;fill-opacity:1;fill-rule:nonzero;stroke:none"
           transform="matrix(1,0,0,-1,201.17,687.22)"><tspan
             id="tspan184"
             y="0"
             x="0">\</tspan></text>
</g></g><g
       id="g188"><g
         clip-path="url(#clipPath194)"
         id="g190" /></g><g
       id="g196"><g
         clip-path="url(#clipPath202)"
         id="g198"><text
           id="text206"
           style="font-variant:normal;font-weight:normal;font-size:10.56000042px;font-family:'Courier 10 Pitch';-inkscape-font-specification:CourierNewPSMT;writing-mode:lr-tb;fill:#FFFFFF;fill-opacity:1;fill-rule:nonzero;stroke:none"
           transform="matrix(1,0,0,-1,213.77,687.22)"><tspan
             id="tspan204"
             y="0"
             x="0 6.336 12.59808 25.196159 31.53216 37.794239 44.130241 50.392319 75.588478 81.924477 100.78464 107.12064 113.49888 119.73984 126.07584 138.67392 144.936 151.272 157.53407 163.87009 170.13216 176.46815 182.73024 189.06624 195.32832 201.66432">)( ) _) ) / )( ) D ( ) _) </tspan></text>
</g></g><g
       id="g208"><g
         clip-path="url(#clipPath214)"
         id="g210"><text
           id="text218"
           style="font-variant:normal;font-weight:normal;font-size:10.56000042px;font-family:'Courier 10 Pitch';-inkscape-font-specification:CourierNewPSMT;writing-mode:lr-tb;fill:#FFFFFF;fill-opacity:1;fill-rule:nonzero;stroke:none"
           transform="matrix(1,0,0,-1,421.75,687.22)"><tspan
             id="tspan216"
             y="0"
             x="0">\</tspan></text>
</g></g><g
       id="g220"><g
         clip-path="url(#clipPath226)"
         id="g222"><text
           id="text230"
           style="font-variant:normal;font-weight:normal;font-size:10.56000042px;font-family:'Courier 10 Pitch';-inkscape-font-specification:CourierNewPSMT;writing-mode:lr-tb;fill:#FFFFFF;fill-opacity:1;fill-rule:nonzero;stroke:none"
           transform="matrix(1,0,0,-1,428.11,687.22)"><tspan
             id="tspan228"
             y="0"
             x="0 6.2409601 12.57696 18.9552">___ </tspan></text>
</g></g><g
       id="g232"><g
         clip-path="url(#clipPath238)"
         id="g234"><text
           id="text242"
           style="font-variant:normal;font-weight:normal;font-size:10.56000042px;font-family:'Courier 10 Pitch';-inkscape-font-specification:CourierNewPSMT;writing-mode:lr-tb;fill:#FFFFFF;fill-opacity:1;fill-rule:nonzero;stroke:none"
           transform="matrix(1,0,0,-1,453.34,687.22)"><tspan
             id="tspan240"
             y="0"
             x="0">\</tspan></text>
</g></g><g
       id="g244"><g
         clip-path="url(#clipPath250)"
         id="g246" /></g><g
       id="g252"><g
         clip-path="url(#clipPath258)"
         id="g254" /></g><g
       id="g260"><g
         clip-path="url(#clipPath266)"
         id="g262"><text
           id="text270"
           style="font-variant:normal;font-weight:normal;font-size:10.56000042px;font-family:'Courier 10 Pitch';-inkscape-font-specification:CourierNewPSMT;writing-mode:lr-tb;fill:#FFFFFF;fill-opacity:1;fill-rule:nonzero;stroke:none"
           transform="matrix(1,0,0,-1,75.024,675.34)"><tspan
             id="tspan268"
             y="0"
             x="0 6.336 12.71424 18.9552 25.291201 31.55328 37.889278 44.15136 50.487358 56.749439">(____/(__)</tspan></text>
</g></g><g
       id="g272"><g
         clip-path="url(#clipPath278)"
         id="g274"><text
           id="text282"
           style="font-variant:normal;font-weight:normal;font-size:10.56000042px;font-family:'Courier 10 Pitch';-inkscape-font-specification:CourierNewPSMT;writing-mode:lr-tb;fill:#FFFFFF;fill-opacity:1;fill-rule:nonzero;stroke:none"
           transform="matrix(1,0,0,-1,138.14,675.34)"><tspan
             id="tspan280"
             y="0"
             x="0">\</tspan></text>
</g></g><g
       id="g284"><g
         clip-path="url(#clipPath290)"
         id="g286"><text
           id="text294"
           style="font-variant:normal;font-weight:normal;font-size:10.56000042px;font-family:'Courier 10 Pitch';-inkscape-font-specification:CourierNewPSMT;writing-mode:lr-tb;fill:#FFFFFF;fill-opacity:1;fill-rule:nonzero;stroke:none"
           transform="matrix(1,0,0,-1,144.38,675.34)"><tspan
             id="tspan292"
             y="0"
             x="0 6.336 12.59808 18.93408 25.196159">___/ </tspan></text>
</g></g><g
       id="g296"><g
         clip-path="url(#clipPath302)"
         id="g298"><text
           id="text306"
           style="font-variant:normal;font-weight:normal;font-size:10.56000042px;font-family:'Courier 10 Pitch';-inkscape-font-specification:CourierNewPSMT;writing-mode:lr-tb;fill:#FFFFFF;fill-opacity:1;fill-rule:nonzero;stroke:none"
           transform="matrix(1,0,0,-1,175.94,675.34)"><tspan
             id="tspan304"
             y="0"
             x="0">\</tspan></text>
</g></g><g
       id="g308"><g
         clip-path="url(#clipPath314)"
         id="g310"><text
           id="text318"
           style="font-variant:normal;font-weight:normal;font-size:10.56000042px;font-family:'Courier 10 Pitch';-inkscape-font-specification:CourierNewPSMT;writing-mode:lr-tb;fill:#FFFFFF;fill-opacity:1;fill-rule:nonzero;stroke:none"
           transform="matrix(1,0,0,-1,182.18,675.34)"><tspan
             id="tspan316"
             y="0"
             x="0 6.336 12.59808 18.93408 25.312321 31.55328 37.889278 44.15136 50.487358 56.749439 63.085442 69.347519 75.683517 81.945602 88.281601 100.87968 107.14176 113.47776">___/(__)(____) (__</tspan></text>
</g></g><g
       id="g320"><g
         clip-path="url(#clipPath326)"
         id="g322"><text
           id="text330"
           style="font-variant:normal;font-weight:normal;font-size:10.56000042px;font-family:'Courier 10 Pitch';-inkscape-font-specification:CourierNewPSMT;writing-mode:lr-tb;fill:#FFFFFF;fill-opacity:1;fill-rule:nonzero;stroke:none"
           transform="matrix(1,0,0,-1,301.97,675.34)"><tspan
             id="tspan328"
             y="0"
             x="0">\</tspan></text>
</g></g><g
       id="g332"><g
         clip-path="url(#clipPath338)"
         id="g334"><text
           id="text342"
           style="font-variant:normal;font-weight:normal;font-size:10.56000042px;font-family:'Courier 10 Pitch';-inkscape-font-specification:CourierNewPSMT;writing-mode:lr-tb;fill:#FFFFFF;fill-opacity:1;fill-rule:nonzero;stroke:none"
           transform="matrix(1,0,0,-1,308.33,675.34)"><tspan
             id="tspan340"
             y="0"
             x="0 6.2409601 12.57696 18.9552 25.196159 31.53216 37.794239 44.130241 50.392319 56.728321 62.990398 69.326401 75.588478 81.924477 88.186562">_)(__)(____/(__</tspan></text>
</g></g><g
       id="g344"><g
         clip-path="url(#clipPath350)"
         id="g346"><text
           id="text354"
           style="font-variant:normal;font-weight:normal;font-size:10.56000042px;font-family:'Courier 10 Pitch';-inkscape-font-specification:CourierNewPSMT;writing-mode:lr-tb;fill:#FFFFFF;fill-opacity:1;fill-rule:nonzero;stroke:none"
           transform="matrix(1,0,0,-1,402.91,675.34)"><tspan
             id="tspan352"
             y="0"
             x="0 6.2409601 12.57696 18.839041 25.175039 31.43712 37.773121 44.15136 50.392319 56.728321">__)(____/ </tspan></text>
</g></g><g
       id="g356"><g
         clip-path="url(#clipPath362)"
         id="g358" /></g><g
       id="g364"><g
         clip-path="url(#clipPath370)"
         id="g366" /></g><g
       id="g372"><g
         clip-path="url(#clipPath378)"
         id="g374"><text
           id="text382"
           style="font-variant:normal;font-weight:normal;font-size:10.56000042px;font-family:'Courier 10 Pitch';-inkscape-font-specification:CourierNewPSMT;writing-mode:lr-tb;fill:#FFFFFF;fill-opacity:1;fill-rule:nonzero;stroke:none"
           transform="matrix(1,0,0,-1,163.34,663.46)"><tspan
             id="tspan380"
             y="0"
             x="0 6.2409601 12.57696 44.15136 50.392319 56.728321 62.990398 69.326401 81.924477 88.186562 94.52256 100.78464 107.12064 125.9808 132.3168 138.57887 157.51295 163.8912 170.13216 182.73024 189.06624 195.32832 201.66432 207.92641">__ ____ ____ __ __ __ _ </tspan></text>
</g></g><g
       id="g384"><g
         clip-path="url(#clipPath390)"
         id="g386" /></g><g
       id="g392"><g
         clip-path="url(#clipPath398)"
         id="g394" /></g><g
       id="g400"><g
         clip-path="url(#clipPath406)"
         id="g402"><text
           id="text410"
           style="font-variant:normal;font-weight:normal;font-size:10.56000042px;font-family:'Courier 10 Pitch';-inkscape-font-specification:CourierNewPSMT;writing-mode:lr-tb;fill:#FFFFFF;fill-opacity:1;fill-rule:nonzero;stroke:none"
           transform="matrix(1,0,0,-1,156.98,651.46)"><tspan
             id="tspan408"
             y="0"
             x="0 6.336 12.59808">/ _</tspan></text>
</g></g><g
       id="g412"><g
         clip-path="url(#clipPath418)"
         id="g414"><text
           id="text422"
           style="font-variant:normal;font-weight:normal;font-size:10.56000042px;font-family:'Courier 10 Pitch';-inkscape-font-specification:CourierNewPSMT;writing-mode:lr-tb;fill:#FFFFFF;fill-opacity:1;fill-rule:nonzero;stroke:none"
           transform="matrix(1,0,0,-1,175.94,651.46)"><tspan
             id="tspan420"
             y="0"
             x="0">\</tspan></text>
</g></g><g
       id="g424"><g
         clip-path="url(#clipPath430)"
         id="g426" /></g><g
       id="g432"><g
         clip-path="url(#clipPath438)"
         id="g434"><text
           id="text442"
           style="font-variant:normal;font-weight:normal;font-size:10.56000042px;font-family:'Courier 10 Pitch';-inkscape-font-specification:CourierNewPSMT;writing-mode:lr-tb;fill:#FFFFFF;fill-opacity:1;fill-rule:nonzero;stroke:none"
           transform="matrix(1,0,0,-1,201.17,651.46)"><tspan
             id="tspan440"
             y="0"
             x="0 6.336 12.59808 25.196159 31.53216 37.794239 44.130241 56.728321 62.990398">(_ _)( _ </tspan></text>
</g></g><g
       id="g444"><g
         clip-path="url(#clipPath450)"
         id="g446"><text
           id="text454"
           style="font-variant:normal;font-weight:normal;font-size:10.56000042px;font-family:'Courier 10 Pitch';-inkscape-font-specification:CourierNewPSMT;writing-mode:lr-tb;fill:#FFFFFF;fill-opacity:1;fill-rule:nonzero;stroke:none"
           transform="matrix(1,0,0,-1,270.53,651.46)"><tspan
             id="tspan452"
             y="0"
             x="0">\</tspan></text>
</g></g><g
       id="g456"><g
         clip-path="url(#clipPath462)"
         id="g458" /></g><g
       id="g464"><g
         clip-path="url(#clipPath470)"
         id="g466"><text
           id="text474"
           style="font-variant:normal;font-weight:normal;font-size:10.56000042px;font-family:'Courier 10 Pitch';-inkscape-font-specification:CourierNewPSMT;writing-mode:lr-tb;fill:#FFFFFF;fill-opacity:1;fill-rule:nonzero;stroke:none"
           transform="matrix(1,0,0,-1,283.13,651.46)"><tspan
             id="tspan472"
             y="0"
             x="0 6.2409601 12.57696">/ _</tspan></text>
</g></g><g
       id="g476"><g
         clip-path="url(#clipPath482)"
         id="g478"><text
           id="text486"
           style="font-variant:normal;font-weight:normal;font-size:10.56000042px;font-family:'Courier 10 Pitch';-inkscape-font-specification:CourierNewPSMT;writing-mode:lr-tb;fill:#FFFFFF;fill-opacity:1;fill-rule:nonzero;stroke:none"
           transform="matrix(1,0,0,-1,301.97,651.46)"><tspan
             id="tspan484"
             y="0"
             x="0">\</tspan></text>
</g></g><g
       id="g488"><g
         clip-path="url(#clipPath494)"
         id="g490" /></g><g
       id="g496"><g
         clip-path="url(#clipPath502)"
         id="g498"><text
           id="text506"
           style="font-variant:normal;font-weight:normal;font-size:10.56000042px;font-family:'Courier 10 Pitch';-inkscape-font-specification:CourierNewPSMT;writing-mode:lr-tb;fill:#FFFFFF;fill-opacity:1;fill-rule:nonzero;stroke:none"
           transform="matrix(1,0,0,-1,314.57,651.46)"><tspan
             id="tspan504"
             y="0"
             x="0 6.336 18.9552 25.291201 31.55328 44.15136 50.487358">( )( ( </tspan></text>
</g></g><g
       id="g508"><g
         clip-path="url(#clipPath514)"
         id="g510"><text
           id="text518"
           style="font-variant:normal;font-weight:normal;font-size:10.56000042px;font-family:'Courier 10 Pitch';-inkscape-font-specification:CourierNewPSMT;writing-mode:lr-tb;fill:#FFFFFF;fill-opacity:1;fill-rule:nonzero;stroke:none"
           transform="matrix(1,0,0,-1,371.35,651.46)"><tspan
             id="tspan516"
             y="0"
             x="0">\</tspan></text>
</g></g><g
       id="g520"><g
         clip-path="url(#clipPath526)"
         id="g522" /></g><g
       id="g528"><g
         clip-path="url(#clipPath534)"
         id="g530" /></g><g
       id="g536"><g
         clip-path="url(#clipPath542)"
         id="g538" /></g><g
       id="g544"><g
         clip-path="url(#clipPath550)"
         id="g546"><text
           id="text554"
           style="font-variant:normal;font-weight:normal;font-size:10.56000042px;font-family:'Courier 10 Pitch';-inkscape-font-specification:CourierNewPSMT;writing-mode:lr-tb;fill:#FFFFFF;fill-opacity:1;fill-rule:nonzero;stroke:none"
           transform="matrix(1,0,0,-1,150.74,639.58)"><tspan
             id="tspan552"
             y="0"
             x="0 6.2409601">/ </tspan></text>
</g></g><g
       id="g556"><g
         clip-path="url(#clipPath562)"
         id="g558"><text
           id="text566"
           style="font-variant:normal;font-weight:normal;font-size:10.56000042px;font-family:'Courier 10 Pitch';-inkscape-font-specification:CourierNewPSMT;writing-mode:lr-tb;fill:#FFFFFF;fill-opacity:1;fill-rule:nonzero;stroke:none"
           transform="matrix(1,0,0,-1,182.18,639.58)"><tspan
             id="tspan564"
             y="0"
             x="0">\</tspan></text>
</g></g><g
       id="g568"><g
         clip-path="url(#clipPath574)"
         id="g570" /></g><g
       id="g576"><g
         clip-path="url(#clipPath582)"
         id="g578"><text
           id="text586"
           style="font-variant:normal;font-weight:normal;font-size:10.56000042px;font-family:'Courier 10 Pitch';-inkscape-font-specification:CourierNewPSMT;writing-mode:lr-tb;fill:#FFFFFF;fill-opacity:1;fill-rule:nonzero;stroke:none"
           transform="matrix(1,0,0,-1,213.77,639.58)"><tspan
             id="tspan584"
             y="0"
             x="0 6.336 12.59808 31.53216 37.794239 56.728321 62.990398 69.326401">)( ) // </tspan></text>
</g></g><g
       id="g588"><g
         clip-path="url(#clipPath594)"
         id="g590"><text
           id="text598"
           style="font-variant:normal;font-weight:normal;font-size:10.56000042px;font-family:'Courier 10 Pitch';-inkscape-font-specification:CourierNewPSMT;writing-mode:lr-tb;fill:#FFFFFF;fill-opacity:1;fill-rule:nonzero;stroke:none"
           transform="matrix(1,0,0,-1,308.33,639.58)"><tspan
             id="tspan596"
             y="0"
             x="0">\</tspan></text>
</g></g><g
       id="g600"><g
         clip-path="url(#clipPath606)"
         id="g602" /></g><g
       id="g608"><g
         clip-path="url(#clipPath614)"
         id="g610"><text
           id="text618"
           style="font-variant:normal;font-weight:normal;font-size:10.56000042px;font-family:'Courier 10 Pitch';-inkscape-font-specification:CourierNewPSMT;writing-mode:lr-tb;fill:#FFFFFF;fill-opacity:1;fill-rule:nonzero;stroke:none"
           transform="matrix(1,0,0,-1,320.95,639.58)"><tspan
             id="tspan616"
             y="0"
             x="0 6.336 12.59808 18.93408 25.196159 50.392319 56.728321">)( / / </tspan></text>
</g></g><g
       id="g620"><g
         clip-path="url(#clipPath626)"
         id="g622" /></g><g
       id="g628"><g
         clip-path="url(#clipPath634)"
         id="g630" /></g><g
       id="g636"><g
         clip-path="url(#clipPath642)"
         id="g638"><text
           id="text646"
           style="font-variant:normal;font-weight:normal;font-size:10.56000042px;font-family:'Courier 10 Pitch';-inkscape-font-specification:CourierNewPSMT;writing-mode:lr-tb;fill:#FFFFFF;fill-opacity:1;fill-rule:nonzero;stroke:none"
           transform="matrix(1,0,0,-1,150.74,627.7)"><tspan
             id="tspan644"
             y="0"
             x="0">\</tspan></text>
</g></g><g
       id="g648"><g
         clip-path="url(#clipPath654)"
         id="g650"><text
           id="text658"
           style="font-variant:normal;font-weight:normal;font-size:10.56000042px;font-family:'Courier 10 Pitch';-inkscape-font-specification:CourierNewPSMT;writing-mode:lr-tb;fill:#FFFFFF;fill-opacity:1;fill-rule:nonzero;stroke:none"
           transform="matrix(1,0,0,-1,156.98,627.7)"><tspan
             id="tspan656"
             y="0"
             x="0 6.3600001">_/</tspan></text>
</g></g><g
       id="g660"><g
         clip-path="url(#clipPath666)"
         id="g662"><text
           id="text670"
           style="font-variant:normal;font-weight:normal;font-size:10.56000042px;font-family:'Courier 10 Pitch';-inkscape-font-specification:CourierNewPSMT;writing-mode:lr-tb;fill:#FFFFFF;fill-opacity:1;fill-rule:nonzero;stroke:none"
           transform="matrix(1,0,0,-1,169.58,627.7)"><tspan
             id="tspan668"
             y="0"
             x="0">\</tspan></text>
</g></g><g
       id="g672"><g
         clip-path="url(#clipPath678)"
         id="g674"><text
           id="text682"
           style="font-variant:normal;font-weight:normal;font-size:10.56000042px;font-family:'Courier 10 Pitch';-inkscape-font-specification:CourierNewPSMT;writing-mode:lr-tb;fill:#FFFFFF;fill-opacity:1;fill-rule:nonzero;stroke:none"
           transform="matrix(1,0,0,-1,175.94,627.7)"><tspan
             id="tspan680"
             y="0"
             x="0 6.2409601 12.57696 31.55328 37.794239 44.130241 50.392319 56.728321 62.990398 69.326401 75.588478">_/ (__) (__</tspan></text>
</g></g><g
       id="g684"><g
         clip-path="url(#clipPath690)"
         id="g686"><text
           id="text694"
           style="font-variant:normal;font-weight:normal;font-size:10.56000042px;font-family:'Courier 10 Pitch';-inkscape-font-specification:CourierNewPSMT;writing-mode:lr-tb;fill:#FFFFFF;fill-opacity:1;fill-rule:nonzero;stroke:none"
           transform="matrix(1,0,0,-1,257.93,627.7)"><tspan
             id="tspan692"
             y="0"
             x="0">\</tspan></text>
</g></g><g
       id="g696"><g
         clip-path="url(#clipPath702)"
         id="g698"><text
           id="text706"
           style="font-variant:normal;font-weight:normal;font-size:10.56000042px;font-family:'Courier 10 Pitch';-inkscape-font-specification:CourierNewPSMT;writing-mode:lr-tb;fill:#FFFFFF;fill-opacity:1;fill-rule:nonzero;stroke:none"
           transform="matrix(1,0,0,-1,264.17,627.7)"><tspan
             id="tspan704"
             y="0"
             x="0 6.3600001">_)</tspan></text>
</g></g><g
       id="g708"><g
         clip-path="url(#clipPath714)"
         id="g710"><text
           id="text718"
           style="font-variant:normal;font-weight:normal;font-size:10.56000042px;font-family:'Courier 10 Pitch';-inkscape-font-specification:CourierNewPSMT;writing-mode:lr-tb;fill:#FFFFFF;fill-opacity:1;fill-rule:nonzero;stroke:none"
           transform="matrix(1,0,0,-1,276.77,627.7)"><tspan
             id="tspan716"
             y="0"
             x="0">\</tspan></text>
</g></g><g
       id="g720"><g
         clip-path="url(#clipPath726)"
         id="g722"><text
           id="text730"
           style="font-variant:normal;font-weight:normal;font-size:10.56000042px;font-family:'Courier 10 Pitch';-inkscape-font-specification:CourierNewPSMT;writing-mode:lr-tb;fill:#FFFFFF;fill-opacity:1;fill-rule:nonzero;stroke:none"
           transform="matrix(1,0,0,-1,283.13,627.7)"><tspan
             id="tspan728"
             y="0"
             x="0 6.2399998">_/</tspan></text>
</g></g><g
       id="g732"><g
         clip-path="url(#clipPath738)"
         id="g734"><text
           id="text742"
           style="font-variant:normal;font-weight:normal;font-size:10.56000042px;font-family:'Courier 10 Pitch';-inkscape-font-specification:CourierNewPSMT;writing-mode:lr-tb;fill:#FFFFFF;fill-opacity:1;fill-rule:nonzero;stroke:none"
           transform="matrix(1,0,0,-1,295.73,627.7)"><tspan
             id="tspan740"
             y="0"
             x="0">\</tspan></text>
</g></g><g
       id="g744"><g
         clip-path="url(#clipPath750)"
         id="g746"><text
           id="text754"
           style="font-variant:normal;font-weight:normal;font-size:10.56000042px;font-family:'Courier 10 Pitch';-inkscape-font-specification:CourierNewPSMT;writing-mode:lr-tb;fill:#FFFFFF;fill-opacity:1;fill-rule:nonzero;stroke:none"
           transform="matrix(1,0,0,-1,301.97,627.7)"><tspan
             id="tspan752"
             y="0"
             x="0 6.336 12.59808 18.93408 25.312321 31.55328">_/(__)</tspan></text>
</g></g><g
       id="g756"><g
         clip-path="url(#clipPath762)"
         id="g758"><text
           id="text766"
           style="font-variant:normal;font-weight:normal;font-size:10.56000042px;font-family:'Courier 10 Pitch';-inkscape-font-specification:CourierNewPSMT;writing-mode:lr-tb;fill:#FFFFFF;fill-opacity:1;fill-rule:nonzero;stroke:none"
           transform="matrix(1,0,0,-1,339.91,627.7)"><tspan
             id="tspan764"
             y="0"
             x="0">\</tspan></text>
</g></g><g
       id="g768"><g
         clip-path="url(#clipPath774)"
         id="g770"><text
           id="text778"
           style="font-variant:normal;font-weight:normal;font-size:10.56000042px;font-family:'Courier 10 Pitch';-inkscape-font-specification:CourierNewPSMT;writing-mode:lr-tb;fill:#FFFFFF;fill-opacity:1;fill-rule:nonzero;stroke:none"
           transform="matrix(1,0,0,-1,346.15,627.7)"><tspan
             id="tspan776"
             y="0"
             x="0 6.336 12.59808 18.93408 25.196159 31.53216">_)__) </tspan></text>
</g></g><g
       id="g780"><g
         clip-path="url(#clipPath786)"
         id="g782" /></g></g></svg>